<?xml version="1.0"?>
<svg xmlns="http://www.w3.org/2000/svg" height="512px" viewBox="0 -2 496.008 496" width="512px"><path d="m335.761719 438.578125c-2.386719-24.253906-22.890625-43.261719-47.761719-43.261719-9.105469 0-17.910156 2.640625-25.511719 7.421875-2.03125-1.925781-4.183593-3.710937-6.488281-5.308593v-78.800782l12.6875-12.6875c2.242188-2.242187 4.328125-4.664062 6.242188-7.25 2.757812 1.65625 5.613281 3.097656 8.542968 4.3125l27.023438 11.191406 11.191406-27.023437c1.214844-2.9375 2.214844-5.96875 2.992188-9.085937 3.175781.476562 6.367187.710937 9.542968.710937h29.257813v-29.257813c0-3.175781-.242188-6.367187-.710938-9.542968 3.117188-.777344 6.160157-1.777344 9.085938-2.992188l27.023437-11.191406-11.191406-27.023438c-1.214844-2.929687-2.65625-5.785156-4.3125-8.535156 2.585938-1.914062 5.007812-4 7.25-6.242187l20.6875-20.695313-20.6875-20.6875c-2.242188-2.25-4.664062-4.328125-7.25-6.242187 1.65625-2.75 3.097656-5.605469 4.3125-8.535157l11.191406-27.023437-27.023437-11.191406c-2.933594-1.214844-5.96875-2.214844-9.085938-2.992188.476563-3.175781.710938-6.367187.710938-9.542969v-29.265624h-29.257813c-3.175781 0-6.367187.238281-9.542968.710937-.777344-3.117187-1.777344-6.160156-2.992188-9.085937l-11.191406-27.023438-27.023438 11.191406c-2.929687 1.214844-5.785156 2.65625-8.535156 4.3125-1.914062-2.585937-4-5.007812-6.242188-7.25l-20.695312-20.68749975-20.6875 20.68749975c-2.25 2.242188-4.328125 4.664063-6.242188 7.25-2.75-1.65625-5.605468-3.097656-8.535156-4.3125l-27.03125-11.191406-11.191406 27.023438c-1.214844 2.933593-2.214844 5.96875-2.992188 9.085937-3.175781-.480469-6.367187-.710937-9.542968-.710937h-29.257813v29.257812c0 3.175781.242188 6.367188.710938 9.542969-3.117188.773437-6.160157 1.773437-9.085938 2.992187l-27.023437 11.191406 11.191406 27.023438c1.214844 2.929688 2.65625 5.785156 4.3125 8.535156-2.585938 1.914063-5.007812 4-7.25 6.242188l-20.6875 20.695312 20.6875 20.6875c2.242188 2.25 4.664062 4.328125 7.25 6.238282-1.65625 2.753906-3.097656 5.609374-4.3125 8.539062l-11.191406 27.023438 27.023437 11.191406c2.933594 1.214844 5.96875 2.214844 9.085938 2.992187-.476563 3.175781-.710938 6.367188-.710938 9.542969v29.257812h29.257813c3.175781 0 6.367187-.242187 9.542968-.714843.777344 3.121093 1.777344 6.160156 2.992188 9.089843l11.191406 27.023438 27.023438-11.191406c2.929687-1.214844 5.785156-2.65625 8.542968-4.3125 1.914063 2.585937 4 5.007812 6.242188 7.25l12.6875 12.695312v71.046875c-5.070312-1.519531-10.441406-2.359375-16-2.359375-28.40625 0-51.945312 21.261719-55.527344 48.710938-18.472656 3.527344-32.472656 19.800781-32.472656 39.289062h-16v16h256v-16h-16c0-16.457031-10-30.609375-24.238281-36.738281zm-97.136719-143.949219c-3.21875-3.21875-6.007812-6.953125-8.3125-11.097656l-4.585938-8.246094-7.382812 5.863282c-3.71875 2.953124-7.734375 5.328124-11.9375 7.070312l-12.246094 5.074219-5.070312-12.25c-1.746094-4.199219-2.898438-8.71875-3.441406-13.4375l-1.082032-9.378907-9.070312 2.601563c-4.550782 1.304687-9.167969 1.96875-13.726563 1.96875h-13.257812v-13.257813c0-4.558593.664062-9.175781 1.96875-13.726562l2.597656-9.074219-9.375-1.078125c-4.710937-.535156-9.230469-1.695312-13.4375-3.441406l-12.25-5.070312 5.074219-12.25c1.742187-4.207032 4.117187-8.214844 7.0625-11.925782l5.871094-7.394531-8.253907-4.582031c-4.144531-2.296875-7.875-5.097656-11.097656-8.320313l-9.359375-9.359375 9.375-9.375c3.222656-3.226562 6.953125-6.015625 11.097656-8.320312l8.253906-4.585938-5.871093-7.390625c-2.945313-3.710937-5.328125-7.71875-7.0625-11.929687l-5.074219-12.246094 12.25-5.074219c4.199219-1.742187 8.71875-2.894531 13.4375-3.4375l9.378906-1.082031-2.601562-9.070312c-1.304688-4.550782-1.96875-9.167969-1.96875-13.730469v-13.238281h13.257812c4.558594 0 9.175782.664062 13.726563 1.96875l9.074219 2.597656 1.078124-9.375c.535157-4.710938 1.695313-9.230469 3.441407-13.4375l5.070312-12.25 12.25 5.070312c4.207031 1.746094 8.214844 4.121094 11.925781 7.066406l7.390626 5.871094 4.585937-8.253906c2.296875-4.144531 5.097656-7.875 8.320313-11.097656l9.351562-9.367188 9.375 9.375c3.226562 3.222656 6.015625 6.953125 8.320312 11.097656l4.585938 8.253907 7.390625-5.871094c3.710937-2.945313 7.71875-5.328125 11.929687-7.0625l12.246094-5.074219 5.074219 12.25c1.742187 4.199219 2.894531 8.71875 3.4375 13.4375l1.082031 9.375 9.070313-2.597656c4.550781-1.304688 9.167969-1.96875 13.726562-1.96875h13.257813v13.257812c0 4.558594-.664063 9.175782-1.96875 13.726563l-2.597656 9.070313 9.375 1.082031c4.710937.535156 9.230468 1.695312 13.4375 3.441406l12.25 5.070313-5.070313 12.246093c-1.746094 4.210938-4.121094 8.21875-7.066406 11.929688l-5.871094 7.390625 8.253906 4.585937c4.144531 2.296875 7.875 5.09375 11.097657 8.320313l9.351562 9.351562-9.375 9.375c-3.222656 3.222656-6.953125 6.015625-11.097656 8.320313l-8.253906 4.585937 5.871093 7.390625c2.945313 3.710938 5.328125 7.71875 7.0625 11.925781l5.074219 12.25-12.25 5.070313c-4.199219 1.746094-8.71875 2.898437-13.4375 3.441406l-9.378906 1.082031 2.601562 9.070313c1.304688 4.550781 1.96875 9.167969 1.96875 13.726563v13.257812h-13.257812c-4.558594 0-9.175782-.664062-13.726563-1.96875l-9.074219-2.601562-1.078124 9.378906c-.535157 4.710937-1.695313 9.230468-3.441407 13.4375l-5.070312 12.25-12.25-5.074219c-4.199219-1.742187-8.214844-4.117187-11.933594-7.070313l-7.382813-5.863281-4.585937 8.246094c-2.304687 4.144531-5.097656 7.882813-8.3125 11.097656l-1.359375 1.359375v-41.375l61.65625-61.65625-11.3125-11.3125-50.34375 50.34375v-65.375l37.65625-37.65625-11.3125-11.3125-34.34375 34.34375-50.34375-50.34375-11.3125 11.3125 53.65625 53.65625v41.375l-26.34375-26.34375-11.3125 11.3125 37.65625 37.65625v65.375zm-62.625 156.6875h8v-8c0-22.054687 17.945312-40 40-40s40 17.945313 40 40h16c0-10.160156-2.761719-19.671875-7.511719-27.894531 4.71875-2.625 10.023438-4.105469 15.511719-4.105469 14.902344 0 27.351562 10.289063 30.894531 24.105469-9.351562.261719-18.328125 3.695313-25.351562 9.902344l10.59375 11.992187c4.375-3.871094 10.007812-6 15.863281-6 13.230469 0 24 10.769532 24 24h-192c0-13.230468 10.769531-24 24-24zm0 0" fill="#FFFFFF"/><path d="m83.726562 379.316406h-27.726562c-30.878906 0-56 25.121094-56 56v24h40c30.878906 0 56-25.121094 56-56v-13.738281c9.734375-11.703125 17.671875-24.894531 23.433594-39.285156l-14.859375-5.945313c-5.125 12.800782-12.183594 24.542969-20.847657 34.96875zm-43.726562 64h-24v-8c0-22.054687 17.945312-40 40-40h11.832031c-3.855469 3.273438-7.855469 6.398438-12.113281 9.238282l-12.152344 8.105468 8.875 13.3125 12.152344-8.105468c5.335938-3.558594 10.34375-7.488282 15.117188-11.65625-1.519532 20.6875-18.648438 37.105468-39.710938 37.105468zm0 0" fill="#FFFFFF"/><path d="m440 323.316406h-27.726562c-8.664063-10.425781-15.722657-22.167968-20.839844-34.976562l-14.859375 5.945312c5.761719 14.390625 13.691406 27.582032 23.433593 39.285156v13.746094c0 30.878906 25.121094 56 56 56h40v-24c-.007812-30.878906-25.128906-56-56.007812-56zm40 64h-24c-21.0625 0-38.191406-16.417968-39.703125-37.105468 4.773437 4.167968 9.78125 8.097656 15.117187 11.65625l12.152344 8.105468 8.875-13.3125-12.152344-8.105468c-4.265624-2.839844-8.265624-5.964844-12.121093-9.238282h11.832031c22.054688 0 40 17.945313 40 40zm0 0" fill="#FFFFFF"/><path d="m392 475.316406h16v16h-16zm0 0" fill="#FFFFFF"/><path d="m88 475.316406h16v16h-16zm0 0" fill="#FFFFFF"/></svg>
